<?xml version="1.0" standalone="no"?>
<!DOCTYPE svg PUBLIC "-//W3C//DTD SVG 20010904//EN"
 "http://www.w3.org/TR/2001/REC-SVG-20010904/DTD/svg10.dtd">
<svg version="1.0" xmlns="http://www.w3.org/2000/svg"
 width="690.000000pt" height="388.000000pt" viewBox="0 0 690.000000 388.000000"
 preserveAspectRatio="xMidYMid meet">
<metadata>
Created by potrace 1.15, written by Peter Selinger 2001-2017
</metadata>
<g transform="translate(0.000000,388.000000) scale(0.100000,-0.100000)"
fill="#000000" stroke="none">
<path d="M2965 3554 c-202 -13 -579 -68 -712 -103 -64 -17 -77 -17 -110 -5
-129 46 -523 -28 -861 -162 -392 -155 -646 -315 -846 -532 -145 -158 -222
-278 -279 -439 -75 -207 -85 -510 -26 -740 73 -284 309 -578 629 -784 385
-248 932 -430 1380 -459 280 -18 829 -7 969 20 67 12 89 32 97 82 l7 38 1456
0 c938 0 1487 4 1541 10 172 21 284 75 398 190 104 104 180 250 227 433 34
135 45 230 45 392 0 497 -220 892 -545 979 -33 9 -118 19 -188 23 l-128 6 -14
34 c-18 42 -105 135 -213 225 -381 320 -899 520 -1535 594 -51 6 -60 10 -68
33 -15 39 -38 60 -78 71 -46 13 -317 54 -491 75 -131 15 -532 27 -655 19z
m405 -59 c360 -32 639 -77 648 -104 4 -11 -4 -13 -39 -8 -315 46 -961 23
-1209 -43 -19 -5 -66 -14 -105 -20 -74 -12 -113 -22 -270 -75 -55 -18 -112
-36 -126 -39 -45 -10 -319 -135 -414 -188 -240 -136 -465 -331 -572 -496 -137
-212 -176 -335 -177 -557 -1 -179 22 -280 94 -426 50 -100 115 -196 181 -267
57 -60 200 -183 254 -217 18 -11 57 -36 87 -57 63 -42 310 -168 330 -168 8 0
18 -4 23 -9 6 -5 45 -24 88 -41 78 -33 100 -51 50 -42 -142 26 -404 107 -510
158 -51 24 -95 44 -99 44 -6 0 -47 23 -219 125 -84 49 -266 212 -366 327 -169
195 -256 415 -257 657 -1 111 2 138 29 231 49 172 144 344 258 463 89 93 380
327 408 327 4 0 33 15 63 33 114 69 393 198 469 216 20 5 70 21 111 36 105 36
205 61 345 85 383 66 636 81 925 55z m-1362 -97 c-3 -7 -33 -20 -69 -30 -172
-46 -237 -66 -274 -82 -22 -10 -62 -28 -90 -41 -447 -199 -720 -416 -898 -712
-36 -58 -92 -197 -102 -253 -51 -264 -23 -472 92 -680 55 -99 148 -219 216
-279 10 -9 39 -36 65 -61 54 -52 224 -178 308 -230 31 -19 73 -45 93 -58 20
-12 43 -25 51 -28 8 -4 50 -24 93 -46 104 -53 335 -137 472 -172 55 -14 166
-35 305 -57 137 -22 386 -39 560 -39 149 0 190 -3 190 -13 0 -28 -208 -42
-585 -40 -322 1 -545 26 -735 80 -47 14 -116 33 -155 43 -207 54 -530 201
-735 335 -131 85 -188 131 -268 214 -178 184 -261 316 -323 511 -21 67 -24 93
-24 245 0 133 4 184 18 235 25 89 86 221 139 302 44 67 244 298 258 298 4 0
25 16 46 36 62 57 258 182 384 244 114 57 421 183 476 195 16 4 61 16 99 28
168 49 402 82 393 55z m2082 -89 c170 -17 268 -32 411 -63 36 -8 77 -17 90
-20 91 -20 221 -58 274 -81 17 -7 57 -22 90 -35 193 -71 438 -210 600 -339
139 -110 281 -257 273 -282 -2 -5 -29 10 -60 33 -31 23 -99 66 -150 95 -124
71 -425 220 -463 229 -16 4 -57 19 -90 34 -126 56 -408 134 -615 169 -69 12
-150 26 -180 31 -155 27 -654 21 -910 -10 -179 -22 -550 -106 -685 -156 -55
-20 -125 -45 -155 -56 -82 -28 -323 -152 -420 -216 -266 -172 -454 -374 -550
-587 -121 -269 -115 -549 17 -794 19 -35 31 -66 27 -70 -9 -9 -118 112 -173
194 -71 103 -108 197 -131 327 -23 129 -25 197 -9 300 24 154 75 284 160 411
54 79 71 99 175 202 129 128 201 181 384 288 19 11 42 26 50 32 22 16 246 120
310 144 30 11 93 34 140 51 156 58 474 129 715 160 50 6 97 13 105 15 43 8
671 3 770 -6z m60 -479 c183 -11 322 -35 555 -95 167 -44 450 -146 563 -205
l57 -29 -1435 0 -1435 -1 65 36 c194 106 570 218 913 270 191 30 469 39 717
24z m2005 -400 c3 -6 19 -10 36 -10 16 0 29 -4 29 -10 0 -5 4 -10 9 -10 19 0
106 -102 158 -185 31 -49 73 -147 83 -192 6 -26 17 -66 24 -88 8 -22 17 -80
21 -130 4 -49 9 -97 10 -107 3 -14 -19 -257 -26 -283 -1 -6 1 -23 6 -38 5 -21
2 -40 -13 -70 -11 -23 -32 -71 -47 -107 -15 -36 -31 -73 -36 -82 -5 -10 -9
-25 -9 -34 0 -10 -22 -41 -50 -70 -28 -29 -50 -58 -50 -63 0 -6 -5 -11 -12
-11 -6 0 -19 -7 -28 -15 -9 -9 -44 -20 -76 -26 -32 -6 -67 -15 -76 -20 -22
-11 -64 -11 -103 -1 -17 5 -70 5 -120 1 -179 -16 -237 -19 -253 -10 -10 5 -65
11 -125 14 -84 4 -110 2 -121 -9 -12 -11 -18 -12 -39 -1 -18 10 -45 11 -94 6
-37 -4 -88 -5 -113 -2 -25 2 -74 0 -109 -6 -55 -9 -68 -8 -82 5 -12 11 -19 12
-24 4 -8 -14 -53 -5 -75 15 -11 10 -27 11 -60 5 -36 -7 -229 -13 -345 -12 -72
1 -135 -7 -170 -22 -33 -14 -44 -15 -65 -5 -35 18 -521 24 -572 8 -27 -9 -41
-9 -50 -1 -13 11 -153 10 -317 -2 -53 -4 -87 -2 -91 4 -9 15 -236 15 -254 1
-20 -17 -111 -17 -131 -1 -10 9 -32 11 -68 7 -29 -3 -60 -1 -69 4 -11 6 -32 3
-65 -10 -35 -13 -55 -16 -73 -9 -14 5 -54 8 -90 8 -88 -2 -231 -2 -250 0 -161
20 -243 45 -302 93 -17 15 -35 27 -39 27 -4 0 -21 13 -36 29 -45 44 -116 131
-108 131 4 0 1 10 -7 22 -8 13 -21 41 -28 63 -7 22 -16 45 -20 50 -25 33 -70
268 -70 365 0 53 11 142 34 267 1 7 5 15 8 19 4 3 4 12 1 20 -3 9 1 14 12 14
13 0 16 6 12 22 -7 26 8 58 28 58 8 0 16 7 17 15 0 8 1 21 2 28 1 6 9 15 19
19 9 4 17 17 17 29 0 12 10 32 23 44 31 30 57 64 57 73 0 5 10 17 23 29 12 11
31 31 43 44 29 34 84 81 84 72 0 -5 4 -2 9 5 5 8 24 18 42 22 52 12 4146 12
4154 0z"/>
<path d="M1890 1928 c0 -2 38 -136 83 -298 l83 -295 54 -3 55 -3 54 195 c30
107 57 200 61 206 4 6 28 -67 55 -162 26 -95 52 -188 57 -205 9 -32 11 -33 63
-33 51 0 55 2 61 28 4 15 42 150 84 300 l77 272 -63 0 c-61 0 -64 -1 -71 -27
-3 -16 -25 -102 -48 -192 l-41 -164 -53 192 -54 192 -65 -3 -66 -3 -50 -183
c-27 -100 -53 -177 -57 -170 -3 7 -25 91 -49 186 l-42 172 -64 0 c-35 0 -64
-1 -64 -2z"/>
<path d="M2801 1638 c-61 -161 -111 -297 -111 -301 0 -4 28 -7 63 -5 l62 3 29
83 28 82 102 0 102 0 31 -82 31 -83 67 -3 c53 -2 66 0 63 11 -2 8 -55 143
-118 300 l-115 287 -61 0 -61 0 -112 -292z"/>
<path d="M3270 1928 c0 -2 52 -136 114 -298 l115 -295 59 -3 59 -3 98 253 c53
139 106 275 116 301 l19 48 -67 -3 -66 -3 -74 -200 c-40 -110 -76 -207 -79
-215 -3 -8 -41 82 -84 200 l-78 215 -66 3 c-36 2 -66 2 -66 0z"/>
<path d="M3920 1630 l0 -300 230 0 230 0 0 50 0 50 -170 0 -170 0 0 80 0 80
155 0 155 0 0 50 0 50 -155 0 -155 0 0 70 0 70 165 0 165 0 0 50 0 50 -225 0
-225 0 0 -300z"/>
<path d="M4500 1631 l0 -301 60 0 60 0 0 115 0 115 93 0 c109 0 155 11 198 47
90 76 77 242 -24 295 -38 21 -58 23 -214 26 l-173 4 0 -301z m326 165 c13 -15
24 -38 24 -51 0 -13 -11 -36 -24 -51 -21 -26 -30 -28 -115 -32 l-91 -4 0 87 0
87 91 -4 c85 -4 94 -6 115 -32z"/>
<path d="M5111 1638 c-61 -161 -111 -297 -111 -301 0 -4 28 -7 63 -5 l62 3 29
83 28 82 102 0 102 0 31 -82 31 -83 67 -3 c53 -2 66 0 63 11 -2 8 -55 143
-118 300 l-115 287 -61 0 -61 0 -112 -292z"/>
<path d="M5601 1883 c18 -27 72 -105 121 -175 l88 -128 0 -125 0 -126 58 3 57
3 3 124 3 123 86 127 c48 69 102 147 121 174 l34 47 -75 0 -75 0 -77 -116 -76
-116 -76 116 -75 116 -74 0 -75 0 32 -47z"/>
</g>
</svg>
